<svg width="530" height="370" viewBox="0 0 530 370" fill="none" xmlns="http://www.w3.org/2000/svg">
<path d="M156.211 217.596C158.437 217.04 160 215.04 160 212.745V150C160 147.239 157.761 145 155 145C152.239 145 150 142.761 150 140C150 137.239 152.239 135 155 135H191.657C193.289 135 194.819 134.203 195.755 132.865C202.27 123.545 214.095 115.464 229.524 110.42C240.07 106.972 252.141 105 265 105C277.859 105 289.93 106.972 300.476 110.42C315.905 115.464 327.73 123.545 334.245 132.865C335.181 134.203 336.711 135 338.343 135H375C377.761 135 380 137.239 380 140C380 142.761 377.761 145 375 145C372.239 145 370 147.239 370 150V212.745C370 215.04 371.563 217.04 373.789 217.596C422.906 229.854 459.365 249.89 475.616 272.886C480.7 280.08 483.751 287.48 484.689 295H385C383.328 295 381.767 295.836 380.84 297.227L362.324 325H167.676L149.16 297.227C148.233 295.836 146.672 295 145 295H45.3111C46.2486 287.48 49.2996 280.08 54.3838 272.886C70.6347 249.89 107.094 229.854 156.211 217.596ZM40 335H126.269L135.878 349.414C142.37 359.151 153.298 365 165 365H365C376.702 365 387.63 359.151 394.122 349.414L403.731 335H490C509.33 335 525 319.33 525 300C525 265.631 503.727 238.942 479.111 220.65C460.175 206.579 436.444 195.164 410 186.434V168.286C416.251 160.56 420 150.712 420 140C420 115.147 399.853 95 375 95H353.646C345.033 87.3518 334.889 81.2098 323.893 76.5272C324.62 72.7936 325 68.9392 325 65C325 31.8629 298.137 5 265 5C231.863 5 205 31.8629 205 65C205 68.9392 205.38 72.7936 206.107 76.5272C195.111 81.2098 184.967 87.3518 176.354 95H155C130.147 95 110 115.147 110 140C110 150.712 113.749 160.56 120 168.286V186.434C93.5556 195.164 69.8246 206.579 50.8887 220.65C26.2733 238.942 5 265.631 5 300C5 319.33 20.67 335 40 335ZM285 65C285 66.9126 284.733 68.7544 284.237 70.4944C281.85 78.8727 274.134 85 265 85C255.866 85 248.15 78.8727 245.763 70.4944C245.267 68.7544 245 66.9126 245 65C245 53.9543 253.954 45 265 45C276.046 45 285 53.9543 285 65Z" fill="white" stroke="#D0D0D0" stroke-width="10" stroke-linejoin="round"/>
<path fill-rule="evenodd" clip-rule="evenodd" d="M290 65C290 78.8071 278.807 90 265 90C251.193 90 240 78.8071 240 65C240 51.1929 251.193 40 265 40C278.807 40 290 51.1929 290 65ZM265 100C297.805 100 325.998 112.341 338.343 130H375C380.523 130 385 134.477 385 140C385 145.523 380.523 150 375 150V212.745C443.629 229.872 490 262.529 490 300H385L365 330H165L145 300H40C40 262.529 86.3711 229.872 155 212.745V150C149.477 150 145 145.523 145 140C145 134.477 149.477 130 155 130H191.657C204.002 112.341 232.195 100 265 100ZM225 180C225 191.046 216.046 200 205 200C193.954 200 185 191.046 185 180C185 168.954 193.954 160 205 160C216.046 160 225 168.954 225 180ZM265 200C276.046 200 285 191.046 285 180C285 168.954 276.046 160 265 160C253.954 160 245 168.954 245 180C245 191.046 253.954 200 265 200ZM325 200C336.046 200 345 191.046 345 180C345 168.954 336.046 160 325 160C313.954 160 305 168.954 305 180C305 191.046 313.954 200 325 200Z" fill="#FF51BC"/>
</svg>
